<?xml version="1.0" encoding="UTF-8"?>
<svg version="1.1" xmlns="http://www.w3.org/2000/svg" width="807" height="804">
<path d="M0 0 C104.14898707 -0.12099405 104.14898707 -0.12099405 147.78320312 -0.14648438 C157.76896174 -0.15235709 167.75472021 -0.15841828 177.74047852 -0.16479492 C179.61754324 -0.16598179 179.61754324 -0.16598179 181.53252846 -0.16719264 C201.67721097 -0.18020438 221.82186751 -0.20383569 241.96653468 -0.23145839 C262.67416 -0.25961406 283.38177182 -0.27619763 304.08941549 -0.28226548 C316.84453388 -0.28636095 329.59957891 -0.29924763 342.35467469 -0.3237494 C351.12738096 -0.33973236 359.90004987 -0.34437229 368.67276961 -0.34050413 C373.71754899 -0.3386019 378.7622011 -0.34130382 383.80695724 -0.35761642 C435.6296777 -0.51658933 485.75890394 6.01004346 535 23 C535.93215332 23.31549805 536.86430664 23.63099609 537.82470703 23.95605469 C552.67977534 29.00452833 566.85977714 35.21954831 581 42 C582.32692871 42.63059326 582.32692871 42.63059326 583.68066406 43.27392578 C617.32531499 59.33131034 648.07920167 80.77725586 675.6171875 105.8359375 C677.1954019 107.26926665 678.78389285 108.6913678 680.3828125 110.1015625 C690.2005305 118.78282439 699.53926615 127.98634665 708 138 C708.88667391 139.01289941 709.77483301 140.02449966 710.6640625 141.03515625 C723.83075591 156.06978887 735.17121019 172.21794185 746 189 C746.41846191 189.64727051 746.83692383 190.29454102 747.26806641 190.96142578 C788.20008532 254.95873493 808.80787375 333.22650888 807 409 C806.98211426 409.78826172 806.96422852 410.57652344 806.94580078 411.38867188 C804.64416288 501.77416013 771.84906935 590.82495537 712 659 C711.36707031 659.7321875 710.73414063 660.464375 710.08203125 661.21875 C708.4009272 663.1575977 706.70170178 665.07922856 705 667 C704.40832031 667.68449219 703.81664062 668.36898437 703.20703125 669.07421875 C698.0047284 675.00102025 692.50325478 680.60304347 686.9375 686.1875 C686.18170654 686.94788574 685.42591309 687.70827148 684.6472168 688.49169922 C679.92683328 693.19924863 675.08072072 697.68471953 670 702 C669.04516724 702.81488892 669.04516724 702.81488892 668.07104492 703.64624023 C657.43594149 712.66042477 646.43432249 721.02844603 635 729 C634.38511719 729.43231934 633.77023437 729.86463867 633.13671875 730.31005859 C617.00319628 741.60084137 599.75943068 751.62015945 581.96923828 760.05810547 C579.87347525 761.06051729 577.79430102 762.09312389 575.71484375 763.12890625 C518.47411428 791.33824534 452.70331066 805.22900278 389 804 C379.01858014 770.73363395 371.37557857 737.47390919 367 703 C366.83483887 701.72817871 366.66967773 700.45635742 366.49951172 699.14599609 C361.33439926 657.33903102 361.64218966 612.76478497 367 571 C367.17349719 569.60320964 367.34683333 568.20639927 367.52001953 566.80957031 C373.71415433 517.58596719 386.08536198 468.89866087 405 423 C399.62806094 416.47121267 393.68214926 410.55420138 387.6953125 404.59765625 C386.60507635 403.50928861 385.51506331 402.42069743 384.42526245 401.33189392 C381.57688206 398.48730465 378.72550996 395.64573319 375.87347412 392.80480957 C372.95548 389.89710335 370.04036696 386.98651176 367.125 384.07617188 C361.41946016 378.38130919 355.71075206 372.68963588 350 367 C344.48789485 368.60876881 339.04743691 370.26634273 333.69140625 372.34765625 C306.12657468 382.86643023 277.9016047 391.01833392 249 397 C247.94006836 397.21994629 246.88013672 397.43989258 245.78808594 397.66650391 C227.31438864 401.43252984 208.73445243 403.99643101 190 406 C188.90864746 406.12004395 187.81729492 406.24008789 186.69287109 406.36376953 C152.40106896 409.96636844 116.26395822 409.77708834 82 406 C80.82518066 405.87641113 79.65036133 405.75282227 78.43994141 405.62548828 C62.81987685 403.9398698 47.41674879 401.48609269 32 398.5 C31.25540527 398.35656158 30.51081055 398.21312317 29.74365234 398.06533813 C27.57757193 397.6446598 25.41351064 397.2149356 23.25 396.78125 C22.01765625 396.53439453 20.7853125 396.28753906 19.515625 396.03320312 C12.96678688 394.53478817 6.49123853 392.73099694 0 391 C0 261.97 0 132.94 0 0 Z M493 217 C492.10812988 217.66443115 492.10812988 217.66443115 491.19824219 218.34228516 C482.46711159 224.84690248 474.16451406 231.80227268 466 239 C464.57300781 240.25683594 464.57300781 240.25683594 463.1171875 241.5390625 C456.61143782 247.39242502 450.38714978 253.51282243 444.1875 259.6875 C443.38675049 260.48357666 442.58600098 261.27965332 441.76098633 262.09985352 C437.47515516 266.39729577 433.40489557 270.74858237 429.59887695 275.47973633 C427.73078447 277.25597879 426.54039607 277.69269915 424 278 C421.59765625 277.2578125 421.59765625 277.2578125 419.0625 276.125 C408.35407729 271.39144684 397.51472944 272.10748777 386.4609375 275.44140625 C373.49234612 281.28166354 364.61865241 290.90662547 354.8125 300.9375 C353.27372758 302.49637226 351.73402122 304.0543232 350.19335938 305.61132812 C346.45140202 309.39699363 342.72114771 313.19388336 339 317 C342.36428604 318.12142868 343.57196628 317.83178156 346.96484375 317.0859375 C352.8725616 315.9348691 358.55302232 315.61710318 364.5625 315.625 C365.59375 315.62371094 366.625 315.62242187 367.6875 315.62109375 C377.16126615 315.74990886 385.91245307 317.42978471 395 320 C392.24642122 325.18254867 389.4324161 330.30935003 386.41015625 335.33984375 C385.96140137 336.08886963 385.51264648 336.83789551 385.05029297 337.60961914 C384.15320568 339.100854 383.25002986 340.58844578 382.34033203 342.07202148 C381.92251465 342.76755127 381.50469727 343.46308105 381.07421875 344.1796875 C380.69869873 344.79569824 380.32317871 345.41170898 379.9362793 346.04638672 C378.77336663 348.47288662 378.2110475 350.30172222 378 353 C379.45505687 355.32671186 379.45505687 355.32671186 381.74194336 357.4230957 C382.58289047 358.26358963 383.42383759 359.10408356 384.29026794 359.970047 C385.67605797 361.30938545 385.67605797 361.30938545 387.08984375 362.67578125 C388.02349258 363.6009404 388.95714142 364.52609955 389.91908264 365.47929382 C392.40002572 367.93734082 394.89845532 370.37684057 397.40093994 372.81292725 C399.9519149 375.30249641 402.48596362 377.80916344 405.02148438 380.31445312 C409.99787543 385.22651832 414.99294622 390.11919972 420 395 C421.89621797 394.0647632 423.79094632 393.12650583 425.68505859 392.18701172 C427.2679921 391.40377029 427.2679921 391.40377029 428.88290405 390.60470581 C433.28037426 388.34085314 437.44935523 385.76981459 441.625 383.125 C443.1771581 382.14442222 444.73172647 381.1676458 446.2890625 380.1953125 C446.95631348 379.77266113 447.62356445 379.35000977 448.31103516 378.91455078 C450 378 450 378 452 378 C452.48473678 379.68590842 452.96248926 381.37382545 453.4375 383.0625 C453.70433594 384.00222656 453.97117187 384.94195312 454.24609375 385.91015625 C455.94388492 392.868461 456.1917433 399.62731046 456.1875 406.75 C456.18955444 408.21445557 456.18955444 408.21445557 456.19165039 409.70849609 C456.15161246 415.62916684 455.80516336 421.21105659 454.33984375 426.9765625 C453.95129384 429.28999758 454.37780575 430.76359781 455 433 C459.88184383 428.29757888 464.7344826 423.56639513 469.5690918 418.81542969 C471.21244644 417.20699211 472.86206444 415.60492541 474.51831055 414.00976562 C484.06436036 404.80680851 492.33348051 396.61076548 497 384 C497.27650391 383.28497314 497.55300781 382.56994629 497.83789062 381.83325195 C500.89865063 372.15621554 499.2245698 362.19948331 495.97265625 352.875 C495.49119141 351.451875 495.49119141 351.451875 495 350 C494.6803125 349.16210938 494.360625 348.32421875 494.03125 347.4609375 C494 345 494 345 496.24609375 342.3515625 C497.29540988 341.42602134 498.36032445 340.51796338 499.4375 339.625 C499.99373047 339.14023193 500.54996094 338.65546387 501.12304688 338.15600586 C502.73579718 336.7546604 504.36462132 335.3748108 506 334 C514.92179443 326.36888108 523.45371567 318.23827238 531.05859375 309.27734375 C532.61231955 307.45476399 534.18829953 305.66325461 535.78515625 303.87890625 C548.7898873 289.25768794 560.56777909 273.55752414 571 257 C571.44875488 256.29037109 571.89750977 255.58074219 572.35986328 254.84960938 C602.67645005 208.2134531 602.67645005 208.2134531 617 156 C577.09993297 156 522.97454637 194.38775458 493 217 Z " fill="#FF5D00" transform="translate(0,0)"/>
<path d="M0 0 C0.66 0.66 1.32 1.32 2 2 C1.34 2 0.68 2 0 2 C0 1.34 0 0.68 0 0 Z " fill="#FF5D00" transform="translate(166,454)"/>
</svg>
